[Header]
FileType HTR
DataType HTRS
FileVersion 1
NumSegments 22
NumFrames 6
DataFrameRate 24
EulerRotationOrder ZYX
CalibrationUnits mm
RotationUnits Degrees
GlobalAxisofGravity Y
BoneLengthAxis Y
ScaleFactor 1.0
[SegmentNames&Hierarchy]
reference	GLOBAL
Hips	reference
Spine	Hips
Spine1	Spine
Neck	Spine1
Head	Neck
LeftShoulder	Spine1
LeftArm	LeftShoulder
LeftForeArm	LeftArm
LeftHand	LeftForeArm
RightShoulder	Spine1
RightArm	RightShoulder
RightForeArm	RightArm
RightHand	RightForeArm
LeftUpLeg	Hips
LeftLeg	LeftUpLeg
LeftFoot	LeftLeg
LeftToeBase	LeftFoot
RightUpLeg	Hips
RightLeg	RightUpLeg
RightFoot	RightLeg
RightToeBase	RightFoot
[BasePosition]
reference	0	0	0	0	0	0	1
Hips	0	0	0	0	0	0	1
Spine	0	0	0	0	-0	90	1
Spine1	0	0	0	0	0	0	1
Neck	0	0	0	-7.352430803	-7.352430803	90	1
Head	0	0	0	0	-0	90	1
LeftShoulder	0	0	0	0	0	0	1
LeftArm	0	0	0	0	0	0	1
LeftForeArm	0	0	0	0	0	0	1
LeftHand	0	0	0	0	0	0	1
RightShoulder	0	0	0	0	-0	180	1
RightArm	0	0	0	0	-0	180	1
RightForeArm	0	0	0	0	-0	180	1
RightHand	0	0	0	0	-0	180	1
LeftUpLeg	0	0	0	0	-0	-90	1
LeftLeg	0	0	0	0	-0	-90	1
LeftFoot	0	0	0	66.57150701	-66.57150701	-90	1
LeftToeBase	0	0	0	0	-90	0	1
RightUpLeg	0	0	0	0	-0	-90	1
RightLeg	0	0	0	0	-0	-90	1
RightFoot	0	0	0	66.57150701	-66.57150701	-90	1
RightToeBase	0	0	0	0	-90	0	1
[reference]
56	0	0	0	0	-0	0	1.0
57	0	0	0	0	-0	0	1.0
58	0	0	0	0	-0	0	1.0
59	0	0	0	0	-0	0	1.0
60	0	0	0	0	-0	0	1.0
61	0	0	0	0	-0	0	1.0
[Hips]
56	9.81126976	8.407475471	-3.171092272	181.3378296	-109.7390213	-179.870697	1.0
57	10.06177139	8.244169235	-3.350283623	176.8600311	-109.5517883	-177.0838318	1.0
58	10.34348679	8.050477028	-3.615203857	175.404129	-108.561676	-177.3444214	1.0
59	10.61629772	8.034632683	-3.852736712	180.500351	-107.9836349	-181.1316528	1.0
60	10.85968876	8.042057037	-4.027249336	182.7459106	-109.1300659	-183.5644226	1.0
61	11.08319092	8.122293472	-4.154864311	180.8258972	-113.324707	-182.199295	1.0
[Spine]
56	0	0.7478299737	0	-1.279927969	4.821027756	-89.30873871	1.0
57	0	0.7478299737	0	1.081338406	4.906805038	-88.70878601	1.0
58	0	0.7478299737	0	3.208014488	4.620653152	-88.73020935	1.0
59	0	0.7478299737	0	2.744620562	4.246518135	-87.79519653	1.0
60	0	0.7478299737	0	2.053209782	1.896395802	-87.07002258	1.0
61	0	0.7478299737	0	1.149093986	-2.643548965	-88.30091858	1.0
[Spine1]
56	0	2.049309969	0	2.496202707	1.573346257	0.6744276881	1.0
57	0	2.049309969	0	2.976655245	1.654598594	-0.5732545257	1.0
58	0	2.049309969	0	3.714050293	1.611681104	-0.5153619051	1.0
59	0	2.049309969	0	7.244891167	1.413309574	-0.2186514735	1.0
60	0	2.049309969	0	8.332885742	0.5087730885	1.071213365	1.0
61	0	2.049309969	0	9.505890846	-1.050897241	2.138715506	1.0
[Neck]
56	0	2.231709957	0	-9.596776009	10.74098206	-89.87759399	1.0
57	0	2.231709957	0	-9.389782906	10.73679543	-89.61805725	1.0
58	0	2.231709957	0	-10.41824627	11.34125614	-89.60313416	1.0
59	0	2.231709957	0	-13.10498428	11.58119202	-90.2077713	1.0
60	0	2.231709957	0	-14.60861492	12.62533379	-90.94080353	1.0
61	0	2.231709957	0	-13.81277275	13.30879498	-90.7482605	1.0
[Head]
56	0	1.413589954	0.1823999882	-6.197552681	3.914333105	-95.72380829	1.0
57	0	1.413589954	0.1823999882	-6.885203362	3.893435955	-96.14323425	1.0
58	0	1.413589954	0.1823999882	-8.945449829	4.342618942	-95.26900482	1.0
59	0	1.413589954	0.1823999882	-9.777070999	4.558775902	-94.89028931	1.0
60	0	1.413589954	0.1823999882	-9.451498032	5.763491631	-96.08415985	1.0
61	0	1.413589954	0.1823999882	-10.3772583	6.405548573	-96.77603912	1.0
[LeftShoulder]
56	0.3649300039	1.825889945	-0.04271000251	-9.448425293	-8.169872284	9.666938782	1.0
57	0.3649300039	1.825889945	-0.04271000251	-10.46877384	-8.195791245	8.576994896	1.0
58	0.3649300039	1.825889945	-0.04271000251	-12.08443832	-7.128350258	7.466828346	1.0
59	0.3649300039	1.825889945	-0.04271000251	-11.90769482	-6.331120491	5.470047474	1.0
60	0.3649300039	1.825889945	-0.04271000251	-12.56457901	-7.02357769	4.453372955	1.0
61	0.3649300039	1.825889945	-0.04271000251	-12.76690865	-6.554746628	2.086303234	1.0
[LeftArm]
56	1.24003005	0	0	15.95211411	21.22203827	-64.7673645	1.0
57	1.24003005	0	0	19.62073326	19.68353653	-66.65798187	1.0
58	1.24003005	0	0	22.40990448	16.98057747	-68.65148926	1.0
59	1.24003005	0	0	28.46460915	11.50619221	-71.2352829	1.0
60	1.24003005	0	0	35.59610367	9.35509491	-75.36051941	1.0
61	1.24003005	0	0	43.34971619	5.889408112	-75.49595642	1.0
[LeftForeArm]
56	2.847419977	0	0	5.316534996	0.249261871	-14.61127472	1.0
57	2.847419977	0	0	2.260401249	-3.303353548	-14.03557301	1.0
58	2.847419977	0	0	1.153356791	-6.881719589	-13.68527794	1.0
59	2.847419977	0	0	-0.7099139094	-12.50752449	-11.02500153	1.0
60	2.847419977	0	0	-4.078152657	-20.40903091	-5.499786854	1.0
61	2.847419977	0	0	-4.054470539	-29.29603386	-2.160764217	1.0
[LeftHand]
56	2.258270025	0	0	5.304387093	3.630481482	-1.400021434	1.0
57	2.258270025	0	0	1.849218488	0.3399960101	-1.389811516	1.0
58	2.258270025	0	0	0.3435328305	-2.612883568	-0.7384456396	1.0
59	2.258270025	0	0	-1.993179679	-5.00665617	1.590493202	1.0
60	2.258270025	0	0	-5.369785309	-7.833946228	4.366256237	1.0
61	2.258270025	0	0	-5.505613804	-9.355974197	10.79366016	1.0
[RightShoulder]
56	-0.3646599948	1.825889945	-0.04271000251	-10.68317604	11.06818199	174.1420593	1.0
57	-0.3646599948	1.825889945	-0.04271000251	-10.66320515	11.19621372	174.7838287	1.0
58	-0.3646599948	1.825889945	-0.04271000251	-11.17603779	11.97711754	175.6007385	1.0
59	-0.3646599948	1.825889945	-0.04271000251	-11.2902441	11.87861729	175.9376526	1.0
60	-0.3646599948	1.825889945	-0.04271000251	-10.99750996	11.79854107	175.768219	1.0
61	-0.3646599948	1.825889945	-0.04271000251	-10.28744984	10.98906231	175.8103027	1.0
[RightArm]
56	-1.24003005	0	0	8.988630295	24.28535461	-104.0384674	1.0
57	-1.24003005	0	0	4.263219833	22.30170441	-103.7614899	1.0
58	-1.24003005	0	0	16.55117798	19.15052605	-101.8261795	1.0
59	-1.24003005	0	0	77.78012848	13.99907398	-94.96668243	1.0
60	-1.24003005	0	0	8.830552101	12.94539547	-102.3663559	1.0
61	-1.24003005	0	0	-6.226390839	8.734285355	-104.3141479	1.0
[RightForeArm]
56	-2.847419977	0	0	57.74234772	18.58288956	248.1572266	1.0
57	-2.847419977	0	0	57.24095917	14.20663548	246.7461853	1.0
58	-2.847419977	0	0	46.2746582	19.09501648	228.0033112	1.0
59	-2.847419977	0	0	7.564750195	46.51778412	171.4190979	1.0
60	-2.847419977	0	0	42.15657043	13.11569977	216.4042664	1.0
61	-2.847419977	0	0	42.87524033	6.243525982	218.0155792	1.0
[RightHand]
56	-2.258270025	0	0	46.02587509	15.68856049	174.5311279	1.0
57	-2.258270025	0	0	47.26267624	14.86286736	175.4608612	1.0
58	-2.258270025	0	0	40.26343536	14.51195335	174.990448	1.0
59	-2.258270025	0	0	8.112451553	12.75217915	171.9048157	1.0
60	-2.258270025	0	0	38.75160599	9.767148018	170.9633484	1.0
61	-2.258270025	0	0	39.82082367	9.069320679	168.6680908	1.0
[LeftUpLeg]
56	0.9119900465	0	0	-17.59630966	-3.098046303	95.00353241	1.0
57	0.9119900465	0	0	-20.23141861	-3.327704906	95.27442169	1.0
58	0.9119900465	0	0	-22.98630714	1.019056797	95.75042725	1.0
59	0.9119900465	0	0	-24.58970833	-1.453556418	99.46095276	1.0
60	0.9119900465	0	0	-25.21758652	-8.409402847	102.7619934	1.0
61	0.9119900465	0	0	-26.16552162	-13.52655506	102.5878677	1.0
[LeftLeg]
56	0	-4.371409893	0	14.98487854	1.436596274	86.46734619	1.0
57	0	-4.371409893	0	20.8068428	-1.338891029	84.92033386	1.0
58	0	-4.371409893	0	24.09423828	-2.657376528	84.68330383	1.0
59	0	-4.371409893	0	22.2498436	-2.889862061	83.99986267	1.0
60	0	-4.371409893	0	16.33385086	4.660173416	86.58372498	1.0
61	0	-4.371409893	0	14.84577847	4.805341721	85.93196106	1.0
[LeftFoot]
56	0	-3.918009996	0	-91.10600281	113.8753204	-46.09894943	1.0
57	0	-3.918009996	0	-87.29785919	115.1686859	-39.74754333	1.0
58	0	-3.918009996	0	-92.34029388	114.8825226	-43.82201385	1.0
59	0	-3.918009996	0	-85.35591125	116.5619507	-38.41006088	1.0
60	0	-3.918009996	0	-84.50338745	119.9807281	-44.72424316	1.0
61	0	-3.918009996	0	-83.4666748	122.6246033	-47.22242737	1.0
[LeftToeBase]
56	0	-0.5927900076	1.367989898	0	0	0	1.0
57	0	-0.5927900076	1.367989898	0	0	0	1.0
58	0	-0.5927900076	1.367989898	0	0	0	1.0
59	0	-0.5927900076	1.367989898	0	0	0	1.0
60	0	-0.5927900076	1.367989898	0	0	0	1.0
61	0	-0.5927900076	1.367989898	0	0	0	1.0
[RightUpLeg]
56	-0.9119900465	0	0	4.453876972	-6.351061344	93.57224274	1.0
57	-0.9119900465	0	0	7.065836906	-6.516718864	92.5341568	1.0
58	-0.9119900465	0	0	5.555970669	-5.89253521	93.71549225	1.0
59	-0.9119900465	0	0	2.048725605	-6.364794254	96.36862183	1.0
60	-0.9119900465	0	0	-2.039731264	-6.788239956	97.13206482	1.0
61	-0.9119900465	0	0	-0.8807960153	-9.007527351	96.25524139	1.0
[RightLeg]
56	0	-4.371409893	0	31.99072456	3.971719265	80.36235809	1.0
57	0	-4.371409893	0	29.55714989	4.916682243	81.30834961	1.0
58	0	-4.371409893	0	31.43403053	5.783123493	81.42651367	1.0
59	0	-4.371409893	0	33.80768585	7.355051994	81.57264709	1.0
60	0	-4.371409893	0	36.75389099	8.282722473	85.19087982	1.0
61	0	-4.371409893	0	33.0487442	5.564255238	86.35529327	1.0
[RightFoot]
56	0	-3.918009996	0	32.450737	57.21756744	80.00244141	1.0
57	0	-3.918009996	0	30.35185432	54.68567657	86.17375183	1.0
58	0	-3.918009996	0	24.184618	54.86441422	88.26211548	1.0
59	0	-3.918009996	0	17.93777084	55.9621048	84.30715942	1.0
60	0	-3.918009996	0	16.10266876	55.50281525	80.09603882	1.0
61	0	-3.918009996	0	15.71254826	56.40669632	78.50283051	1.0
[RightToeBase]
56	0	-0.5927900076	1.367989898	0	0	0	1.0
57	0	-0.5927900076	1.367989898	0	0	0	1.0
58	0	-0.5927900076	1.367989898	0	0	0	1.0
59	0	-0.5927900076	1.367989898	0	0	0	1.0
60	0	-0.5927900076	1.367989898	0	0	0	1.0
61	0	-0.5927900076	1.367989898	0	0	0	1.0
[EndOfFile]
